<svg width="24" height="20" viewBox="0 0 24 20" fill="none" xmlns="http://www.w3.org/2000/svg">
<path d="M11.9977 11.7637C8.79364 11.7637 4.05371 13.2612 4.05371 16.4737C4.05371 17.9115 5.22269 19.0826 6.66259 19.0826H17.3328C18.7705 19.0826 19.9417 17.9136 19.9417 16.4737C19.9417 13.2612 15.2017 11.7637 11.9977 11.7637ZM17.3349 17.3739H6.66473C6.16769 17.3739 5.76239 16.9686 5.76239 16.4716C5.76239 14.6392 9.45707 13.4681 11.9998 13.4681C14.5426 13.4681 18.2372 14.6371 18.2372 16.4716C18.2351 16.9708 17.8319 17.3739 17.3349 17.3739Z" fill="white" fill-opacity="0.5"/>
<path d="M11.9979 10.7255C14.7007 10.7255 16.9021 8.52618 16.9021 5.8213C16.9021 3.11643 14.7028 0.917114 11.9979 0.917114C9.29306 0.917114 7.09375 3.11643 7.09375 5.8213C7.09375 8.52618 9.29519 10.7255 11.9979 10.7255ZM11.9979 2.62579C13.7599 2.62579 15.1956 4.05929 15.1956 5.82344C15.1956 7.58758 13.7621 9.02108 11.9979 9.02108C10.2338 9.02108 8.8003 7.58758 8.8003 5.82344C8.8003 4.05929 10.2359 2.62579 11.9979 2.62579Z" fill="white" fill-opacity="0.5"/>
<path d="M5.72204 11.9687C6.18708 11.8962 6.50705 11.4589 6.43452 10.9939C6.36199 10.5288 5.92255 10.2088 5.45965 10.2814C3.06195 10.6547 0.5 11.8407 0.5 14.0422C0.5 14.5413 0.659987 15.0128 0.965033 15.4074C1.13355 15.625 1.38528 15.7381 1.64126 15.7381C1.82258 15.7381 2.00817 15.6805 2.16176 15.5589C2.53507 15.2709 2.60332 14.7355 2.31534 14.3622C2.26628 14.2982 2.20655 14.1894 2.20655 14.0422C2.20655 13.0417 3.97497 12.2418 5.72204 11.9687Z" fill="white" fill-opacity="0.5"/>
<path d="M5.59849 9.26407C5.69022 9.29607 5.78621 9.311 5.87793 9.311C6.23204 9.311 6.56056 9.08915 6.68428 8.73717C6.84001 8.29134 6.60322 7.80497 6.15952 7.65138C5.22305 7.32501 4.59375 6.44187 4.59375 5.45207C4.59375 4.37908 5.32118 3.45114 6.36217 3.1909C6.81867 3.07784 7.09812 2.61493 6.98506 2.1563C6.872 1.6998 6.40697 1.42035 5.95047 1.53341C4.14793 1.98138 2.88721 3.59193 2.88721 5.44994C2.88721 7.16715 3.97727 8.69878 5.59849 9.26407Z" fill="white" fill-opacity="0.5"/>
<path d="M18.5384 10.2814C18.0734 10.2089 17.6361 10.5267 17.5635 10.9939C17.491 11.4589 17.8088 11.8962 18.276 11.9688C20.0231 12.2418 21.7936 13.0418 21.7936 14.0444C21.7936 14.1937 21.7339 14.3003 21.6848 14.3643C21.3969 14.7376 21.4651 15.2731 21.8384 15.5611C21.9941 15.6805 22.1776 15.7402 22.3589 15.7402C22.6149 15.7402 22.8666 15.6272 23.0351 15.4096C23.3402 15.015 23.5002 14.5435 23.5002 14.0444C23.498 11.8408 20.9361 10.6569 18.5384 10.2814Z" fill="white" fill-opacity="0.5"/>
<path d="M17.6358 3.19084C18.6768 3.44895 19.4042 4.37902 19.4042 5.45201C19.4042 6.44181 18.7749 7.32708 17.8384 7.65133C17.3926 7.80705 17.158 8.29341 17.3137 8.73712C17.4353 9.08909 17.7659 9.31094 18.12 9.31094C18.2139 9.31094 18.3077 9.29601 18.3995 9.26401C20.0207 8.69872 21.1107 7.16709 21.1107 5.45201C21.1107 3.59401 19.8522 1.98346 18.0475 1.53549C17.591 1.42243 17.1281 1.69974 17.0129 2.15838C16.8998 2.61488 17.1793 3.07778 17.6358 3.19084Z" fill="white" fill-opacity="0.5"/>
</svg>
