<svg width="20" height="20" viewBox="0 0 20 20" fill="none" xmlns="http://www.w3.org/2000/svg">
<path d="M17.31 7.06239H16.0453V6.63703C16.0472 3.30447 13.3337 0.590942 9.99921 0.590942C6.66475 0.590942 3.95122 3.30447 3.95122 6.63893V7.06429H2.68656C1.32125 7.06239 0.208496 8.17514 0.208496 9.54235V12.0071C0.208496 13.3743 1.32125 14.4871 2.68846 14.4871H4.71268C5.13234 14.4871 5.47224 14.1472 5.47224 13.7275V11.5134V7.82195V6.63703C5.47034 4.14188 7.50216 2.11006 9.99921 2.11006C12.4963 2.11006 14.5281 4.14188 14.5281 6.63893V7.82384V11.5153V13.1768V13.7294V15.3245C14.5281 15.9131 14.0496 16.3917 13.4609 16.3917H12.6368C12.445 15.5353 11.6797 14.8915 10.7664 14.8915H8.66049C7.6028 14.8915 6.7426 15.7517 6.7426 16.8094V17.4911C6.7426 18.5488 7.6028 19.409 8.66049 19.409H10.7664C11.6797 19.409 12.445 18.7653 12.6368 17.9089H13.4609C14.887 17.9089 16.0472 16.7487 16.0472 15.3226V14.4871H17.3119C18.6791 14.4871 19.7918 13.3743 19.7918 12.0071V9.54235C19.7899 8.17514 18.6772 7.06239 17.31 7.06239ZM3.95122 12.968H2.68656C2.15677 12.968 1.72572 12.5369 1.72572 12.0071V9.54235C1.72572 9.01255 2.15677 8.5815 2.68656 8.5815H3.95122V11.5134V12.968ZM11.1632 17.4911C11.1632 17.7114 10.9847 17.8899 10.7645 17.8899H8.66049C8.44022 17.8899 8.26172 17.7114 8.26172 17.4911V16.8075C8.26172 16.5873 8.44022 16.4088 8.66049 16.4088H10.7664C10.9866 16.4088 11.1651 16.5873 11.1651 16.8075V17.4911H11.1632ZM18.2708 12.0071C18.2708 12.5369 17.8398 12.968 17.31 12.968H16.0453V11.5134V8.5815H17.31C17.8398 8.5815 18.2708 9.01255 18.2708 9.54235V12.0071Z" fill="white" fill-opacity="0.5"/>
</svg>
