<svg width="16" height="20" viewBox="0 0 16 20" fill="none" xmlns="http://www.w3.org/2000/svg">
<path d="M13.5217 19.1667H12.0289C10.6935 19.1667 9.60748 18.0807 9.60748 16.7453V12.6546C9.60748 12.2401 9.27171 11.9044 8.85727 11.9044H7.14002C6.72557 11.9044 6.38979 12.2401 6.38979 12.6546V16.7453C6.38979 18.0807 5.3038 19.1667 3.96837 19.1667H2.47562C1.14019 19.1667 0.0541992 18.0807 0.0541992 16.7453V9.50213C0.0541992 7.91536 0.660507 6.41492 1.76185 5.27328L4.68406 2.24171C5.559 1.33416 6.73708 0.833374 7.9996 0.833374C9.26211 0.833374 10.4383 1.33416 11.3151 2.24171L14.2373 5.27328C15.3387 6.41492 15.945 7.91727 15.945 9.50213V16.7453C15.9431 18.0807 14.8571 19.1667 13.5217 19.1667ZM7.14002 10.3694H8.85727C10.1179 10.3694 11.1425 11.394 11.1425 12.6546V16.7453C11.1425 17.2346 11.5396 17.6317 12.0289 17.6317H13.5217C14.0109 17.6317 14.4081 17.2346 14.4081 16.7453V9.50213C14.4081 8.31637 13.9553 7.192 13.1302 6.33817L10.208 3.3066C9.62475 2.70028 8.83999 2.36835 7.99768 2.36835C7.15728 2.36835 6.37253 2.7022 5.78732 3.3066L2.86511 6.33817C2.04198 7.192 1.58725 8.31637 1.58725 9.50213V16.7453C1.58725 17.2346 1.98442 17.6317 2.4737 17.6317H3.96645C4.45573 17.6317 4.85291 17.2346 4.85291 16.7453V12.6546C4.85675 11.394 5.88134 10.3694 7.14002 10.3694Z" fill="white" fill-opacity="0.5"/>
</svg>
