<svg width="20" height="20" viewBox="0 0 20 20" fill="none" xmlns="http://www.w3.org/2000/svg">
<path d="M4.60027 18.3333C4.05495 18.3333 3.55421 18.1894 3.14066 17.9056C2.71697 17.6136 2.17977 17.0339 2.03584 15.929C1.80271 13.9626 1.68513 11.9719 1.68311 10.0015C1.68311 8.03101 1.80068 6.04029 2.03381 4.082C2.17977 2.96501 2.71697 2.38725 3.14066 2.09533C3.74679 1.67773 4.54957 1.56015 5.39695 1.7649C8.54723 2.52307 14.9329 5.99569 17.4021 8.03506C17.9778 8.51146 18.3123 9.22301 18.3164 9.99132V10.0116C18.3123 10.7779 17.9798 11.4915 17.4021 11.9679C14.9329 14.0072 8.5452 17.4798 5.39695 18.238C5.1253 18.3009 4.85772 18.3333 4.60027 18.3333ZM4.59621 3.28733C4.38132 3.28733 4.19684 3.33599 4.05899 3.43127C3.78329 3.62182 3.67989 3.99888 3.6434 4.28269C3.42041 6.16597 3.30487 8.09385 3.30487 9.99943C3.30487 11.907 3.41838 13.8329 3.6434 15.7263C3.67989 16 3.78126 16.3791 4.05899 16.5676C4.28198 16.7217 4.62255 16.7521 5.01786 16.6568C7.84987 15.9756 14.1038 12.5841 16.3702 10.713C16.5709 10.5468 16.6926 10.2812 16.6946 10.0015V9.99335C16.6926 9.71765 16.5709 9.45006 16.3702 9.28382C14.1038 7.41068 7.84987 4.02118 5.01786 3.34004C4.86784 3.30558 4.72798 3.28733 4.59621 3.28733Z" fill="white" fill-opacity="0.5"/>
</svg>
